                                                          
                                            INFO:                                                                                                                                                              Release Date                     :5/2033                            

                         Complete name                    : rlf-sfight720
                         Format                           : AVI
                         Format/Info                      : Audio Video Interleave
                         File size                        : 1.78 GiB
                         Duration                         : 1h 28mn
                         Overall bit rate                 : 2 882 Kbps

                                           Video:


                         Format                           : MPEG-4 Visual
                         Format profile                   : Advanced Simple@L5
                         Format settings, BVOP            : 2
                         Format settings, QPel            : No
                         Format settings, GMC             : No warppoints
                         Format settings, Matrix          : Default (H.263)
                         Codec ID                         : XVID
                         Codec ID/Hint                    : XviD
                         Duration                         : 1h 28mn
                         Bit rate                         : 2 743 Kbps
                         Width                            : 1 280 pixels
                         Height                           : 720 pixels
                         Display aspect ratio             : 16:9
                         Frame rate                       : 23.976 fps
                         Color space                      : YUV
                         Chroma subsampling               : 4:2:0
                         Bit depth                        : 8 bits
                         Scan type                        : Progressive
                         Compression mode                 : Lossy
                         Bits/(Pixel*Frame)               : 0.124
                         Stream size                      : 1.70 GiB (95%)
                         Writing library                  : XviD 1.2.1 (UTC 2008-12-04)


                                            Audio:


                         Format                           : AC-3
                         Format/Info                      : Audio Coding 3
                         Mode extension                   : CM (complete main)
                         Codec ID                         : 2000
                         Duration                         : 1h 28mn
                         Bit rate mode                    : Constant
                         Bit rate                         : 128 Kbps
                         Channel(s)                       : 6 channels
                         Channel positions                : Front: L C R, Side: L R, LFE
                         Sampling rate                    : 48.0 KHz
                         Bit depth                        : 16 bits
                         Compression mode                 : Lossy
                         Stream size                      : 81.1 MiB (4%)
                         Alignment                        : Aligned on interleaves
                         Interleave, duration             : 32 ms (0.77 video frame)                                                                       
                                            Source:

                                  Japhson 720p.BluRay.x264 (THX)


                                http://www.imdb.com/title/tt1621429/


                                            Enjoy :)


                                            GREETZ:
                                             
                                 SaM (Real P2P 700 MiB Encoder)


                                          ..::rlf::..
                                            ( :X) )